# This file uses centimeters as units for non-parametric coordinates.

mtllib Chair.mtl
g default
v -4.000000 -0.500000 4.000000
v -3.210727 -0.500000 4.000000
v 3.210727 -0.500000 4.000000
v 4.000000 -0.500000 4.000000
v -4.000000 0.500000 4.000000
v -3.210727 0.500000 4.000000
v 3.210727 0.500000 4.000000
v 4.000000 0.500000 4.000000
v -4.000000 0.500000 3.349066
v -3.210727 0.500000 3.349066
v 3.210727 0.500000 3.349066
v 4.000000 0.500000 3.349066
v -4.000000 0.500000 -3.494420
v -3.210727 0.500000 -3.494420
v 3.210727 0.500000 -3.494420
v 4.000000 0.500000 -3.494420
v -4.000000 0.500000 -4.000000
v -3.210727 0.500000 -4.000000
v 3.210727 0.500000 -4.000000
v 4.000000 0.500000 -4.000000
v -4.000000 -0.500000 -4.000000
v -3.210727 -0.500000 -4.000000
v 3.210727 -0.500000 -4.000000
v 4.000000 -0.500000 -4.000000
v -4.000000 -0.500000 -3.494420
v -3.210727 -0.500000 -3.494420
v 3.210727 -0.500000 -3.494420
v 4.000000 -0.500000 -3.494420
v -4.000000 -0.500000 3.349066
v -3.210727 -0.500000 3.349066
v 3.210727 -0.500000 3.349066
v 4.000000 -0.500000 3.349066
v -4.000000 8.500000 -3.494420
v -3.210727 8.500000 -3.494420
v -3.210727 8.500000 -4.000000
v -4.000000 8.500000 -4.000000
v 3.210727 8.500000 -3.494420
v 3.210727 8.500000 -4.000000
v 4.000000 8.500001 -3.494420
v 4.000000 8.500001 -4.000000
v 3.210727 7.815482 -3.494420
v -3.210727 7.815482 -3.494420
v -4.000000 7.815482 -3.494420
v -4.000000 7.815482 -4.000000
v -3.210727 7.815482 -4.000000
v 3.210727 7.815482 -4.000000
v 4.000000 7.815483 -4.000000
v 4.000000 7.815483 -3.494420
v 3.210727 1.113688 -3.494420
v -3.210727 1.113688 -3.494420
v -4.000000 1.113688 -3.494420
v -4.000000 1.113688 -4.000000
v -3.210727 1.113688 -4.000000
v 3.210727 1.113688 -4.000000
v 4.000000 1.113688 -4.000000
v 4.000000 1.113688 -3.494420
v -3.210727 5.141550 -3.494420
v -4.000000 5.141550 -3.494421
v -4.000000 5.141550 -4.000000
v -3.210727 5.141550 -4.000000
v 3.210727 5.141550 -4.000000
v 4.000000 5.141551 -4.000000
v 4.000000 5.141551 -3.494420
v 3.210727 5.141550 -3.494421
v -3.210727 4.465520 -3.494420
v -4.000000 4.465520 -3.494421
v -4.000000 4.465520 -4.000000
v -3.210727 4.465520 -4.000000
v 3.210727 4.465520 -4.000000
v 4.000000 4.465521 -4.000000
v 4.000000 4.465521 -3.494420
v 3.210727 4.465520 -3.494421
v -4.000000 -5.500000 -4.000000
v -3.210727 -5.500000 -4.000000
v -3.210727 -5.500000 -3.494420
v -4.000000 -5.500000 -3.494420
v 3.210727 -5.500000 -4.000000
v 4.000000 -5.500000 -4.000000
v 4.000000 -5.500000 -3.494420
v 3.210727 -5.500000 -3.494420
v -4.000000 -5.500000 3.349066
v -3.210727 -5.500000 3.349066
v -3.210727 -5.500000 4.000000
v -4.000000 -5.500000 4.000000
v 3.210727 -5.500000 3.349066
v 4.000000 -5.500000 3.349066
v 4.000000 -5.500000 4.000000
v 3.210727 -5.500000 4.000000
vt 0.000000 0.000000
vt 0.333333 0.000000
vt 0.666667 0.000000
vt 1.000000 0.000000
vt 0.000000 1.000000
vt 0.333333 1.000000
vt 0.666667 1.000000
vt 1.000000 1.000000
vt 0.000000 1.333333
vt 0.333333 1.333333
vt 0.666667 1.333333
vt 1.000000 1.333333
vt 0.000000 1.666667
vt 0.333333 1.666667
vt 0.666667 1.666667
vt 1.000000 1.666667
vt 0.000000 2.000000
vt 0.333333 2.000000
vt 0.666667 2.000000
vt 1.000000 2.000000
vt 0.000000 3.000000
vt 0.333333 3.000000
vt 0.666667 3.000000
vt 1.000000 3.000000
vt 0.000000 3.333333
vt 0.333333 3.333333
vt 0.666667 3.333333
vt 1.000000 3.333333
vt 0.000000 3.666667
vt 0.333333 3.666667
vt 0.666667 3.666667
vt 1.000000 3.666667
vt 0.000000 4.000000
vt 0.333333 4.000000
vt 0.666667 4.000000
vt 1.000000 4.000000
vt 2.000000 0.000000
vt 1.666667 0.000000
vt 1.333333 0.000000
vt 2.000000 1.000000
vt 1.666667 1.000000
vt 1.333333 1.000000
vt -1.000000 0.000000
vt -0.666667 0.000000
vt -0.333333 0.000000
vt -1.000000 1.000000
vt -0.666667 1.000000
vt -0.333333 1.000000
vt 0.000000 1.666667
vt 0.333333 1.666667
vt 0.333333 2.000000
vt 0.000000 2.000000
vt 0.666667 1.666667
vt 0.666667 2.000000
vt 1.000000 1.666667
vt 1.000000 2.000000
vt 0.666667 1.666667
vt 0.333333 1.666667
vt 0.000000 1.666667
vt 0.000000 2.000000
vt 0.333333 2.000000
vt 0.666667 2.000000
vt 1.000000 2.000000
vt 1.000000 1.666667
vt 0.666667 1.666667
vt 0.333333 1.666667
vt 0.000000 1.666667
vt 0.000000 2.000000
vt 0.333333 2.000000
vt 0.666667 2.000000
vt 1.000000 2.000000
vt 1.000000 1.666667
vt 0.333333 1.666667
vt 0.000000 1.666667
vt 0.000000 2.000000
vt 0.333333 2.000000
vt 0.666667 2.000000
vt 1.000000 2.000000
vt 1.000000 1.666667
vt 0.666667 1.666667
vt 0.333333 1.666667
vt 0.000000 1.666667
vt 0.000000 2.000000
vt 0.333333 2.000000
vt 0.666667 2.000000
vt 1.000000 2.000000
vt 1.000000 1.666667
vt 0.666667 1.666667
vt 0.000000 0.000000
vt 1.000000 0.000000
vt 1.000000 0.189077
vt 0.000000 0.189077
vt 0.000000 0.000000
vt 1.000000 0.000000
vt 1.000000 0.189077
vt 0.000000 0.189077
vt 0.000000 0.000000
vt 1.000000 0.000000
vt 1.000000 0.150837
vt 0.000000 0.150837
vt 0.000000 0.000000
vt 1.000000 0.000000
vt 1.000000 0.150837
vt 0.000000 0.150837
vt 0.000000 3.000000
vt 0.333333 3.000000
vt 0.333333 3.333333
vt 0.000000 3.333333
vt 0.666667 3.000000
vt 1.000000 3.000000
vt 1.000000 3.333333
vt 0.666667 3.333333
vt 0.000000 3.666667
vt 0.333333 3.666667
vt 0.333333 4.000000
vt 0.000000 4.000000
vt 0.666667 3.666667
vt 1.000000 3.666667
vt 1.000000 4.000000
vt 0.666667 4.000000
vn 0.000000 0.000000 1.000000
vn 0.000000 0.000000 1.000000
vn 0.000000 0.000000 1.000000
vn 0.000000 0.000000 1.000000
vn 0.000000 0.000000 1.000000
vn 0.000000 0.000000 1.000000
vn 0.000000 0.000000 1.000000
vn 0.000000 0.000000 1.000000
vn 0.000000 1.000000 0.000000
vn 0.000000 1.000000 0.000000
vn 0.000000 1.000000 0.000000
vn 0.000000 1.000000 0.000000
vn 0.000000 1.000000 0.000000
vn 0.000000 1.000000 0.000000
vn 0.000000 1.000000 0.000000
vn 0.000000 1.000000 0.000000
vn 0.000000 1.000000 0.000000
vn 0.000000 1.000000 0.000000
vn 0.000000 1.000000 0.000000
vn 0.000000 1.000000 0.000000
vn 0.000000 1.000000 0.000000
vn 0.000000 1.000000 0.000000
vn 0.000000 1.000000 0.000000
vn 0.000000 1.000000 0.000000
vn -0.000000 1.000000 0.000000
vn -0.000000 1.000000 0.000000
vn -0.000001 1.000000 0.000000
vn -0.000001 1.000000 0.000000
vn 0.000000 0.000000 -1.000000
vn 0.000000 0.000000 -1.000000
vn 0.000000 0.000000 -1.000000
vn 0.000000 0.000000 -1.000000
vn 0.000000 0.000000 -1.000000
vn 0.000000 0.000000 -1.000000
vn 0.000000 0.000000 -1.000000
vn 0.000000 0.000000 -1.000000
vn 0.000000 -1.000000 0.000000
vn 0.000000 -1.000000 0.000000
vn 0.000000 -1.000000 0.000000
vn 0.000000 -1.000000 0.000000
vn 0.000000 -1.000000 0.000000
vn 0.000000 -1.000000 0.000000
vn 0.000000 -1.000000 0.000000
vn 0.000000 -1.000000 0.000000
vn 0.000000 -1.000000 0.000000
vn 0.000000 -1.000000 0.000000
vn 0.000000 -1.000000 0.000000
vn 0.000000 -1.000000 0.000000
vn 0.000000 -1.000000 0.000000
vn 0.000000 -1.000000 0.000000
vn 0.000000 -1.000000 0.000000
vn 0.000000 -1.000000 0.000000
vn 0.000000 -1.000000 0.000000
vn 0.000000 -1.000000 0.000000
vn 0.000000 -1.000000 0.000000
vn 0.000000 -1.000000 0.000000
vn 0.000000 -1.000000 0.000000
vn 0.000000 -1.000000 0.000000
vn 0.000000 -1.000000 0.000000
vn 0.000000 -1.000000 0.000000
vn 0.000000 -1.000000 0.000000
vn 0.000000 -1.000000 0.000000
vn 0.000000 -1.000000 0.000000
vn 0.000000 -1.000000 0.000000
vn 1.000000 -0.000000 0.000000
vn 1.000000 0.000000 0.000000
vn 1.000000 0.000000 0.000000
vn 1.000000 0.000000 0.000000
vn 1.000000 -0.000000 0.000000
vn 1.000000 -0.000000 0.000000
vn 1.000000 0.000000 0.000000
vn 1.000000 0.000000 0.000000
vn -1.000000 0.000000 0.000000
vn -1.000000 -0.000000 0.000000
vn -1.000000 0.000000 0.000000
vn -1.000000 -0.000000 0.000000
vn -1.000000 -0.000000 0.000000
vn -1.000000 0.000000 0.000000
vn -1.000000 0.000000 0.000000
vn -1.000000 0.000000 0.000000
vn 0.000000 0.000000 1.000000
vn 0.000000 0.000000 1.000000
vn 0.000000 0.000000 1.000000
vn -0.000000 0.000000 1.000000
vn 0.000000 0.000000 -1.000000
vn 0.000000 0.000000 -1.000000
vn -1.000000 0.000000 0.000000
vn -1.000000 0.000000 0.000000
vn 0.000000 0.000000 1.000000
vn -0.000000 0.000000 1.000000
vn 0.000000 0.000000 -1.000000
vn -0.000000 0.000000 1.000000
vn -0.000001 0.000000 1.000000
vn 1.000000 0.000000 0.000000
vn 1.000000 0.000000 0.000000
vn 0.000001 0.000000 -1.000000
vn 0.000000 0.000000 1.000000
vn -0.000000 -0.000000 1.000000
vn 0.000000 0.000000 1.000000
vn 0.000000 0.000000 1.000000
vn -0.000000 -0.000000 1.000000
vn 0.000000 0.000000 1.000000
vn -1.000000 0.000000 0.000000
vn -1.000000 0.000000 0.000000
vn -1.000000 0.000000 0.000000
vn -1.000000 0.000000 0.000000
vn 0.000000 0.000000 -1.000000
vn 0.000000 0.000000 -1.000000
vn 0.000000 0.000000 -1.000000
vn 0.000000 0.000000 -1.000000
vn 0.000000 0.000000 -1.000000
vn 0.000000 0.000000 -1.000000
vn 0.000000 0.000000 -1.000000
vn 0.000000 0.000000 -1.000000
vn 1.000000 0.000000 0.000000
vn 1.000000 0.000000 0.000000
vn 1.000000 0.000000 0.000000
vn 1.000000 0.000000 0.000000
vn -0.000000 0.000000 1.000000
vn 0.000000 0.000000 1.000000
vn -0.000001 0.000000 1.000000
vn -0.000000 0.000000 1.000000
vn -1.000000 0.000000 0.000000
vn -1.000000 0.000000 0.000000
vn 0.000000 0.000000 -1.000000
vn 0.000000 0.000000 -1.000000
vn 0.000000 0.000000 -1.000000
vn 0.000000 0.000000 -1.000000
vn 1.000000 0.000000 0.000000
vn 1.000000 0.000000 0.000000
vn -0.000000 -0.000000 1.000000
vn -0.000001 -0.000000 1.000000
vn -0.000001 -0.000000 1.000000
vn -0.000000 -0.000000 1.000000
vn -1.000000 0.000000 0.000000
vn -1.000000 0.000000 0.000000
vn 0.000000 0.000000 -1.000000
vn 0.000000 0.000000 -1.000000
vn 0.000000 0.000000 -1.000000
vn 0.000000 0.000000 -1.000000
vn 1.000000 0.000000 0.000000
vn 1.000000 0.000000 0.000000
vn -0.000000 -0.000000 1.000000
vn -0.000001 0.000000 1.000000
vn -1.000000 0.000000 0.000000
vn -1.000000 -0.000000 0.000000
vn -1.000000 -0.000000 0.000000
vn -1.000000 -0.000000 0.000000
vn 1.000000 0.000000 0.000000
vn 1.000000 0.000000 0.000000
vn 1.000000 0.000000 0.000000
vn 1.000000 0.000000 0.000000
vn 1.000000 0.000000 0.000000
vn 1.000000 0.000000 0.000000
vn 1.000000 0.000000 0.000000
vn 1.000000 0.000000 0.000000
vn -1.000000 0.000000 0.000000
vn -1.000000 0.000000 0.000000
vn -1.000000 0.000000 0.000000
vn -1.000000 0.000000 0.000000
vn 0.000000 -1.000000 0.000000
vn 0.000000 -1.000000 0.000000
vn 0.000000 -1.000000 0.000000
vn 0.000000 -1.000000 0.000000
vn 0.000000 1.000000 0.000000
vn -0.000000 1.000000 0.000000
vn -0.000000 1.000000 0.000000
vn -0.000000 1.000000 0.000000
vn 0.000000 1.000000 0.000000
vn 0.000000 1.000000 0.000000
vn 0.000000 1.000000 0.000000
vn 0.000000 1.000000 0.000000
vn 0.000000 -1.000000 0.000000
vn 0.000000 -1.000000 0.000000
vn 0.000000 -1.000000 0.000000
vn 0.000000 -1.000000 0.000000
vn 0.000000 0.000000 -1.000000
vn 0.000000 0.000000 -1.000000
vn 1.000000 0.000000 0.000000
vn 1.000000 0.000000 0.000000
vn 1.000000 0.000000 0.000000
vn 1.000000 0.000000 0.000000
vn 0.000000 0.000000 1.000000
vn 0.000000 0.000000 1.000000
vn 0.000000 0.000000 1.000000
vn 0.000000 0.000000 1.000000
vn -1.000000 0.000000 0.000000
vn -1.000000 0.000000 0.000000
vn 0.000000 0.000000 -1.000000
vn 0.000000 0.000000 -1.000000
vn 1.000000 0.000000 0.000000
vn 1.000000 0.000000 0.000000
vn 0.000000 0.000000 1.000000
vn 0.000000 0.000000 1.000000
vn 0.000000 0.000000 1.000000
vn 0.000000 0.000000 1.000000
vn -1.000000 0.000000 0.000000
vn -1.000000 0.000000 0.000000
vn -1.000000 0.000000 0.000000
vn -1.000000 0.000000 0.000000
vn 0.000000 0.000000 -1.000000
vn 0.000000 0.000000 -1.000000
vn 0.000000 0.000000 -1.000000
vn 0.000000 0.000000 -1.000000
vn 1.000000 0.000000 0.000000
vn 1.000000 0.000000 0.000000
vn 1.000000 0.000000 0.000000
vn 1.000000 0.000000 0.000000
vn 0.000000 0.000000 1.000000
vn 0.000000 0.000000 1.000000
vn -1.000000 0.000000 0.000000
vn -1.000000 0.000000 0.000000
vn 0.000000 0.000000 -1.000000
vn 0.000000 0.000000 -1.000000
vn 0.000000 0.000000 -1.000000
vn 0.000000 0.000000 -1.000000
vn 1.000000 0.000000 0.000000
vn 1.000000 0.000000 0.000000
vn 0.000000 0.000000 1.000000
vn 0.000000 0.000000 1.000000
vn -1.000000 0.000000 0.000000
vn -1.000000 0.000000 0.000000
vn -1.000000 0.000000 0.000000
vn -1.000000 0.000000 0.000000
s 1
g pCube1
usemtl initialShadingGroup
f 1/1/1 2/2/2 5/5/3
f 5/5/3 2/2/2 6/6/4
f 2/2/2 3/3/5 6/6/4
f 6/6/4 3/3/5 7/7/6
f 3/3/5 4/4/7 7/7/6
f 7/7/6 4/4/7 8/8/8
s 2
f 5/5/9 6/6/10 9/9/11
f 9/9/11 6/6/10 10/10/12
f 6/6/10 7/7/13 10/10/12
f 10/10/12 7/7/13 11/11/14
f 7/7/13 8/8/15 11/11/14
f 11/11/14 8/8/15 12/12/16
f 9/9/11 10/10/12 13/13/17
f 13/13/17 10/10/12 14/14/18
f 10/10/12 11/11/14 14/14/18
f 14/14/18 11/11/14 15/15/19
f 11/11/14 12/12/16 15/15/19
f 15/15/19 12/12/16 16/16/20
s 3
f 33/49/21 34/50/22 36/52/23
f 36/52/23 34/50/22 35/51/24
f 34/50/22 37/53/25 35/51/24
f 35/51/24 37/53/25 38/54/26
f 37/53/25 39/55/27 38/54/26
f 38/54/26 39/55/27 40/56/28
s 4
f 17/17/29 18/18/30 21/21/31
f 21/21/31 18/18/30 22/22/32
f 18/18/30 19/19/33 22/22/32
f 22/22/32 19/19/33 23/23/34
f 19/19/33 20/20/35 23/23/34
f 23/23/34 20/20/35 24/24/36
s 5
f 73/105/37 74/106/38 76/108/39
f 76/108/39 74/106/38 75/107/40
s 6
f 22/22/41 23/23/42 26/26/43
f 26/26/43 23/23/42 27/27/44
s 7
f 77/109/45 78/110/46 80/112/47
f 80/112/47 78/110/46 79/111/48
s 6
f 25/25/49 26/26/43 29/29/50
f 29/29/50 26/26/43 30/30/51
f 26/26/43 27/27/44 30/30/51
f 30/30/51 27/27/44 31/31/52
f 27/27/44 28/28/53 31/31/52
f 31/31/52 28/28/53 32/32/54
s 9
f 81/113/55 82/114/56 84/116/57
f 84/116/57 82/114/56 83/115/58
s 6
f 30/30/51 31/31/52 2/34/59
f 2/34/59 31/31/52 3/35/60
s 10
f 85/117/61 86/118/62 88/120/63
f 88/120/63 86/118/62 87/119/64
s 11
f 28/38/65 24/37/66 16/41/67
f 16/41/67 24/37/66 20/40/68
f 32/39/69 28/38/65 12/42/70
f 12/42/70 28/38/65 16/41/67
f 4/4/71 32/39/69 8/8/72
f 8/8/72 32/39/69 12/42/70
s 13
f 21/43/73 25/44/74 17/46/75
f 17/46/75 25/44/74 13/47/76
f 25/44/74 29/45/77 13/47/76
f 13/47/76 29/45/77 9/48/78
f 29/45/77 1/1/79 9/48/78
f 9/48/78 1/1/79 5/5/80
s 14
f 13/13/81 14/14/82 51/67/83
f 51/67/83 14/14/82 50/66/84
s 4
f 18/18/30 17/17/29 53/69/85
f 53/69/85 17/17/29 52/68/86
s 13
f 17/17/75 13/13/76 52/68/87
f 52/68/87 13/13/76 51/67/88
s 14
f 14/14/82 15/15/89 50/66/84
f 50/66/84 15/15/89 49/65/90
s 4
f 19/19/33 18/18/30 54/70/91
f 54/70/91 18/18/30 53/69/85
s 14
f 15/15/89 16/16/92 49/65/90
f 49/65/90 16/16/92 56/72/93
s 11
f 16/16/67 20/20/68 56/72/94
f 56/72/94 20/20/68 55/71/95
s 4
f 20/20/35 19/19/33 55/71/96
f 55/71/96 19/19/33 54/70/91
s 14
f 42/58/97 41/57/98 34/50/99
f 34/50/99 41/57/98 37/53/100
f 43/59/101 42/58/97 33/49/102
f 33/49/102 42/58/97 34/50/99
s 13
f 44/60/103 43/59/104 36/52/105
f 36/52/105 43/59/104 33/49/106
s 4
f 45/61/107 44/60/108 35/51/109
f 35/51/109 44/60/108 36/52/110
f 46/62/111 45/61/107 38/54/112
f 38/54/112 45/61/107 35/51/109
f 47/63/113 46/62/111 40/56/114
f 40/56/114 46/62/111 38/54/112
s 11
f 48/64/115 47/63/116 39/55/117
f 39/55/117 47/63/116 40/56/118
s 14
f 41/57/98 48/64/119 37/53/100
f 37/53/100 48/64/119 39/55/120
f 51/67/83 50/66/84 66/82/121
f 66/82/121 50/66/84 65/81/122
s 13
f 52/68/87 51/67/88 67/83/123
f 67/83/123 51/67/88 66/82/124
s 4
f 53/69/85 52/68/86 68/84/125
f 68/84/125 52/68/86 67/83/126
f 55/71/96 54/70/91 70/86/127
f 70/86/127 54/70/91 69/85/128
s 11
f 56/72/94 55/71/95 71/87/129
f 71/87/129 55/71/95 70/86/130
s 14
f 49/65/90 56/72/93 72/88/131
f 72/88/131 56/72/93 71/87/132
f 58/74/133 57/73/134 43/59/101
f 43/59/101 57/73/134 42/58/97
s 13
f 59/75/135 58/74/136 44/60/103
f 44/60/103 58/74/136 43/59/104
s 4
f 60/76/137 59/75/138 45/61/107
f 45/61/107 59/75/138 44/60/108
f 62/78/139 61/77/140 47/63/113
f 47/63/113 61/77/140 46/62/111
s 11
f 63/79/141 62/78/142 48/64/115
f 48/64/115 62/78/142 47/63/116
s 14
f 64/80/143 63/79/144 41/57/98
f 41/57/98 63/79/144 48/64/119
f 66/82/121 65/81/122 58/74/133
f 58/74/133 65/81/122 57/73/134
s 13
f 67/83/123 66/82/124 59/75/135
f 59/75/135 66/82/124 58/74/136
s 4
f 68/84/125 67/83/126 60/76/137
f 60/76/137 67/83/126 59/75/138
f 69/85/128 68/84/125 61/77/140
f 61/77/140 68/84/125 60/76/137
f 70/86/127 69/85/128 62/78/139
f 62/78/139 69/85/128 61/77/140
s 11
f 71/87/129 70/86/130 63/79/141
f 63/79/141 70/86/130 62/78/142
s 14
f 72/88/131 71/87/132 64/80/143
f 64/80/143 71/87/132 63/79/144
f 65/81/122 72/88/131 57/73/134
f 57/73/134 72/88/131 64/80/143
s 27
f 46/89/145 61/90/146 41/92/147
f 41/92/147 61/90/146 64/91/148
s 28
f 42/93/149 57/94/150 45/96/151
f 45/96/151 57/94/150 60/95/152
s 29
f 65/97/153 50/98/154 68/100/155
f 68/100/155 50/98/154 53/99/156
s 30
f 69/101/157 54/102/158 72/104/159
f 72/104/159 54/102/158 49/103/160
s 31
f 46/89/161 41/57/162 45/61/163
f 45/61/163 41/57/162 42/93/164
s 32
f 61/77/165 60/95/166 64/91/167
f 64/91/167 60/95/166 57/73/168
s 33
f 54/70/169 53/99/170 49/103/171
f 49/103/171 53/99/170 50/66/172
s 34
f 69/101/173 72/88/174 68/84/175
f 68/84/175 72/88/174 65/97/176
s 4
f 21/21/31 22/22/32 73/105/177
f 73/105/177 22/22/32 74/106/178
s 35
f 22/22/179 26/26/180 74/106/181
f 74/106/181 26/26/180 75/107/182
s 36
f 26/26/183 25/25/184 75/107/185
f 75/107/185 25/25/184 76/108/186
s 13
f 25/25/74 21/21/73 76/108/187
f 76/108/187 21/21/73 73/105/188
s 4
f 23/23/34 24/24/36 77/109/189
f 77/109/189 24/24/36 78/110/190
s 11
f 24/24/66 28/28/65 78/110/191
f 78/110/191 28/28/65 79/111/192
s 37
f 28/28/193 27/27/194 79/111/195
f 79/111/195 27/27/194 80/112/196
s 38
f 27/27/197 23/23/198 80/112/199
f 80/112/199 23/23/198 77/109/200
s 39
f 29/29/201 30/30/202 81/113/203
f 81/113/203 30/30/202 82/114/204
s 40
f 30/30/205 2/34/206 82/114/207
f 82/114/207 2/34/206 83/115/208
s 1
f 2/34/2 1/33/1 83/115/209
f 83/115/209 1/33/1 84/116/210
s 13
f 1/33/79 29/29/77 84/116/211
f 84/116/211 29/29/77 81/113/212
s 41
f 31/31/213 32/32/214 85/117/215
f 85/117/215 32/32/214 86/118/216
s 11
f 32/32/69 4/36/71 86/118/217
f 86/118/217 4/36/71 87/119/218
s 1
f 4/36/7 3/35/5 87/119/219
f 87/119/219 3/35/5 88/120/220
s 42
f 3/35/221 31/31/222 88/120/223
f 88/120/223 31/31/222 85/117/224
