# This file uses centimeters as units for non-parametric coordinates.

mtllib Cone.mtl
g default
v 1.618034 -2.500000 -1.175571
v 0.618034 -2.500000 -1.902113
v -0.618034 -2.500000 -1.902113
v -1.618034 -2.500000 -1.175570
v -2.000000 -2.500000 0.000000
v -1.618034 -2.500000 1.175571
v -0.618034 -2.500000 1.902113
v 0.618034 -2.500000 1.902113
v 1.618034 -2.500000 1.175570
v 2.000000 -2.500000 0.000000
v 0.000000 2.500000 0.000000
vt 0.702254 0.103054
vt 0.577254 0.012236
vt 0.422746 0.012236
vt 0.297746 0.103054
vt 0.250000 0.250000
vt 0.297746 0.396946
vt 0.422746 0.487764
vt 0.577254 0.487764
vt 0.702254 0.396946
vt 0.750000 0.250000
vt 0.250000 0.500000
vt 0.300000 0.500000
vt 0.350000 0.500000
vt 0.400000 0.500000
vt 0.450000 0.500000
vt 0.500000 0.500000
vt 0.550000 0.500000
vt 0.600000 0.500000
vt 0.650000 0.500000
vt 0.700000 0.500000
vt 0.750000 0.500000
vt 0.500000 1.000000
vn 0.000000 -1.000000 0.000000
vn 0.000000 -1.000000 0.000000
vn 0.000000 -1.000000 0.000000
vn 0.000000 -1.000000 0.000000
vn 0.000000 -1.000000 0.000000
vn 0.000000 -1.000000 0.000000
vn 0.000000 -1.000000 0.000000
vn 0.000000 -1.000000 0.000000
vn 0.000000 -1.000000 0.000000
vn 0.000000 -1.000000 0.000000
vn 0.549375 0.355563 -0.756150
vn 0.549375 0.355563 -0.756150
vn 0.549375 0.355563 -0.756150
vn -0.000000 0.355563 -0.934652
vn -0.000000 0.355563 -0.934652
vn -0.000000 0.355563 -0.934652
vn -0.549375 0.355563 -0.756150
vn -0.549375 0.355563 -0.756150
vn -0.549375 0.355563 -0.756150
vn -0.888907 0.355563 -0.288823
vn -0.888907 0.355563 -0.288823
vn -0.888907 0.355563 -0.288823
vn -0.888907 0.355563 0.288824
vn -0.888907 0.355563 0.288824
vn -0.888907 0.355563 0.288824
vn -0.549375 0.355563 0.756150
vn -0.549375 0.355563 0.756150
vn -0.549375 0.355563 0.756150
vn 0.000000 0.355563 0.934652
vn 0.000000 0.355563 0.934652
vn 0.000000 0.355563 0.934652
vn 0.549375 0.355563 0.756150
vn 0.549375 0.355563 0.756150
vn 0.549375 0.355563 0.756150
vn 0.888907 0.355563 0.288823
vn 0.888907 0.355563 0.288823
vn 0.888907 0.355563 0.288823
vn 0.888907 0.355563 -0.288823
vn 0.888907 0.355563 -0.288823
vn 0.888907 0.355563 -0.288823
s off
g pCone1
usemtl initialShadingGroup
f 1/1/1 10/10/2 9/9/3 8/8/4 7/7/5 6/6/6 5/5/7 4/4/8 3/3/9 2/2/10
f 1/11/11 2/12/12 11/22/13
f 2/12/14 3/13/15 11/22/16
f 3/13/17 4/14/18 11/22/19
f 4/14/20 5/15/21 11/22/22
f 5/15/23 6/16/24 11/22/25
f 6/16/26 7/17/27 11/22/28
f 7/17/29 8/18/30 11/22/31
f 8/18/32 9/19/33 11/22/34
f 9/19/35 10/20/36 11/22/37
f 10/20/38 1/21/39 11/22/40
g default
v 1.618034 -2.500000 -1.175571
v 0.618034 -2.500000 -1.902113
v -0.618034 -2.500000 -1.902113
v -1.618034 -2.500000 -1.175570
v -2.000000 -2.500000 0.000000
v -1.618034 -2.500000 1.175571
v -0.618034 -2.500000 1.902113
v 0.618034 -2.500000 1.902113
v 1.618034 -2.500000 1.175570
v 2.000000 -2.500000 0.000000
v 0.000000 2.500000 0.000000
vt 0.702254 0.103054
vt 0.577254 0.012236
vt 0.422746 0.012236
vt 0.297746 0.103054
vt 0.250000 0.250000
vt 0.297746 0.396946
vt 0.422746 0.487764
vt 0.577254 0.487764
vt 0.702254 0.396946
vt 0.750000 0.250000
vt 0.250000 0.500000
vt 0.300000 0.500000
vt 0.350000 0.500000
vt 0.400000 0.500000
vt 0.450000 0.500000
vt 0.500000 0.500000
vt 0.550000 0.500000
vt 0.600000 0.500000
vt 0.650000 0.500000
vt 0.700000 0.500000
vt 0.750000 0.500000
vt 0.500000 1.000000
vn 0.000000 -1.000000 0.000000
vn 0.000000 -1.000000 0.000000
vn 0.000000 -1.000000 0.000000
vn 0.000000 -1.000000 0.000000
vn 0.000000 -1.000000 0.000000
vn 0.000000 -1.000000 0.000000
vn 0.000000 -1.000000 0.000000
vn 0.000000 -1.000000 0.000000
vn 0.000000 -1.000000 0.000000
vn 0.000000 -1.000000 0.000000
vn 0.549375 0.355563 -0.756150
vn 0.549375 0.355563 -0.756150
vn 0.549375 0.355563 -0.756150
vn -0.000000 0.355563 -0.934652
vn -0.000000 0.355563 -0.934652
vn -0.000000 0.355563 -0.934652
vn -0.549375 0.355563 -0.756150
vn -0.549375 0.355563 -0.756150
vn -0.549375 0.355563 -0.756150
vn -0.888907 0.355563 -0.288823
vn -0.888907 0.355563 -0.288823
vn -0.888907 0.355563 -0.288823
vn -0.888907 0.355563 0.288824
vn -0.888907 0.355563 0.288824
vn -0.888907 0.355563 0.288824
vn -0.549375 0.355563 0.756150
vn -0.549375 0.355563 0.756150
vn -0.549375 0.355563 0.756150
vn 0.000000 0.355563 0.934652
vn 0.000000 0.355563 0.934652
vn 0.000000 0.355563 0.934652
vn 0.549375 0.355563 0.756150
vn 0.549375 0.355563 0.756150
vn 0.549375 0.355563 0.756150
vn 0.888907 0.355563 0.288823
vn 0.888907 0.355563 0.288823
vn 0.888907 0.355563 0.288823
vn 0.888907 0.355563 -0.288823
vn 0.888907 0.355563 -0.288823
vn 0.888907 0.355563 -0.288823
s off
g pCone1
f 12/23/41 21/32/42 20/31/43 19/30/44 18/29/45 17/28/46 16/27/47 15/26/48 14/25/49 13/24/50
f 12/33/51 13/34/52 22/44/53
f 13/34/54 14/35/55 22/44/56
f 14/35/57 15/36/58 22/44/59
f 15/36/60 16/37/61 22/44/62
f 16/37/63 17/38/64 22/44/65
f 17/38/66 18/39/67 22/44/68
f 18/39/69 19/40/70 22/44/71
f 19/40/72 20/41/73 22/44/74
f 20/41/75 21/42/76 22/44/77
f 21/42/78 12/43/79 22/44/80
